# Blender v2.79 (sub 0) OBJ File: ''
# www.blender.org
mtllib SpecialRole.mtl
o Cylinder
v 0.000000 1.000000 -1.508479
v 0.000000 1.000000 1.508479
v 0.866025 -0.500000 -1.508479
v 0.866025 -0.500000 1.508479
v -0.866025 -0.500000 -1.508479
v -0.866025 -0.500000 1.508479
vt 0.011045 0.987822
vt 0.011045 0.012178
vt 0.988955 0.012178
vt 0.988955 0.987822
vt 0.011045 0.987822
vt 0.011045 0.012178
vt 0.988955 0.012178
vt 0.988955 0.987822
vt 0.847487 0.005167
vt 0.994063 0.005167
vt 0.994063 0.151743
vt 0.988955 0.012178
vt 0.988955 0.987822
vt 0.011045 0.987822
vt 0.011045 0.012178
vt 0.847487 0.005167
vt 0.994063 0.005167
vt 0.994063 0.151743
vn 0.8660 0.5000 0.0000
vn -0.0000 -1.0000 -0.0000
vn 0.0000 0.0000 1.0000
vn -0.8660 0.5000 0.0000
vn 0.0000 0.0000 -1.0000
usemtl None
s off
f 1/1/1 2/2/1 4/3/1 3/4/1
f 3/5/2 4/6/2 6/7/2 5/8/2
f 4/9/3 2/10/3 6/11/3
f 5/12/4 6/13/4 2/14/4 1/15/4
f 1/16/5 3/17/5 5/18/5
