# Blender v2.79 (sub 0) OBJ File: ''
# www.blender.org
mtllib Cascadas_tiletower.mtl
o Cube.008
v 0.606337 1.440000 -0.509466
v 0.509466 1.440000 0.606337
v -0.606337 1.440000 0.509466
v -0.509466 1.440000 -0.606337
v 0.606337 1.560000 -0.509466
v 0.509466 1.560000 0.606337
v -0.606337 1.560000 0.509466
v -0.509466 1.560000 -0.606337
v 0.521617 0.960000 -0.595916
v 0.595916 0.960000 0.521617
v -0.521617 0.960000 0.595916
v -0.595916 0.960000 -0.521617
v 0.521617 1.080000 -0.595916
v 0.595916 1.080000 0.521617
v -0.521617 1.080000 0.595916
v -0.595916 1.080000 -0.521617
v 0.553717 1.080000 -0.566213
v 0.566213 1.080000 0.553717
v -0.553717 1.080000 0.566213
v -0.566213 1.080000 -0.553717
v 0.553718 1.200000 -0.566213
v 0.566213 1.200000 0.553718
v -0.553717 1.200000 0.566213
v -0.566213 1.200000 -0.553717
v 0.614279 1.320000 -0.499862
v 0.499862 1.320000 0.614279
v -0.614279 1.320000 0.499861
v -0.499861 1.320000 -0.614279
v 0.614279 1.440000 -0.499861
v 0.499861 1.440000 0.614279
v -0.614279 1.440000 0.499861
v -0.499862 1.440000 -0.614279
v 0.592185 1.200000 -0.525849
v 0.525849 1.200000 0.592185
v -0.592185 1.200000 0.525849
v -0.525849 1.200000 -0.592185
v 0.592185 1.320000 -0.525849
v 0.525849 1.320000 0.592185
v -0.592185 1.320000 0.525849
v -0.525849 1.320000 -0.592185
v 0.566533 1.680000 -0.569811
v 0.549213 1.680000 0.550055
v -0.570653 1.680000 0.532735
v -0.553333 1.680000 -0.587131
v 0.566534 1.800000 -0.569810
v 0.549213 1.800000 0.550056
v -0.570653 1.800000 0.532735
v -0.553333 1.800000 -0.587131
v 0.465899 1.800000 -0.620873
v 0.603765 1.800000 0.490610
v -0.507717 1.800000 0.628476
v -0.645584 1.800000 -0.483006
v 0.465899 1.920000 -0.620872
v 0.603765 1.920000 0.490610
v -0.507717 1.920000 0.628476
v -0.645584 1.920000 -0.483006
v 0.589053 1.560000 -0.495384
v 0.466541 1.560000 0.617896
v -0.646738 1.560000 0.495384
v -0.524226 1.560000 -0.617896
v 0.589054 1.680000 -0.495383
v 0.466541 1.680000 0.617896
v -0.646738 1.680000 0.495383
v -0.524226 1.680000 -0.617896
v 0.626676 0.480000 -0.453402
v 0.545851 0.480000 0.663678
v -0.571229 0.480000 0.582852
v -0.490403 0.480000 -0.534228
v 0.626677 0.600000 -0.453402
v 0.545850 0.600000 0.663678
v -0.571229 0.600000 0.582852
v -0.490403 0.600000 -0.534228
v 0.580309 0.600000 -0.538926
v 0.538926 0.600000 0.580309
v -0.580309 0.600000 0.538926
v -0.538926 0.600000 -0.580309
v 0.580309 0.720000 -0.538926
v 0.538926 0.720000 0.580309
v -0.580309 0.720000 0.538926
v -0.538926 0.720000 -0.580309
v 0.578558 0.840000 -0.540805
v 0.540805 0.840000 0.578558
v -0.578558 0.840000 0.540805
v -0.540805 0.840000 -0.578558
v 0.578558 0.960000 -0.540805
v 0.540805 0.960000 0.578558
v -0.578558 0.960000 0.540805
v -0.540805 0.960000 -0.578558
v 0.505860 0.720000 -0.586937
v 0.601450 0.720000 0.528976
v -0.514463 0.720000 0.624566
v -0.610053 0.720000 -0.491348
v 0.505860 0.840000 -0.586937
v 0.601450 0.840000 0.528976
v -0.514463 0.840000 0.624566
v -0.610053 0.840000 -0.491347
v 0.551328 0.240000 -0.568540
v 0.568540 0.240000 0.551328
v -0.551328 0.240000 0.568540
v -0.568539 0.240000 -0.551328
v 0.551328 0.360000 -0.568539
v 0.568539 0.360000 0.551328
v -0.551328 0.360000 0.568539
v -0.568540 0.360000 -0.551328
v 0.618383 0.360000 -0.494775
v 0.494775 0.360000 0.618383
v -0.618383 0.360000 0.494775
v -0.494775 0.360000 -0.618383
v 0.618383 0.480000 -0.494775
v 0.494775 0.480000 0.618383
v -0.618383 0.480000 0.494775
v -0.494775 0.480000 -0.618383
v 0.432742 0.120000 -0.598542
v 0.530587 0.120000 0.517175
v -0.585131 0.120000 0.615020
v -0.682976 0.120000 -0.500698
v 0.432742 0.240000 -0.598542
v 0.530586 0.240000 0.517176
v -0.585131 0.240000 0.615020
v -0.682976 0.240000 -0.500698
v 0.523839 0.000000 -0.530143
v 0.523839 0.000000 0.589857
v -0.596162 0.000000 0.589856
v -0.596161 0.000000 -0.530144
v 0.523839 0.120000 -0.530143
v 0.523838 0.120000 0.589857
v -0.596162 0.120000 0.589856
v -0.596161 0.120000 -0.530143
vt 0.306011 0.166667
vt 0.459016 0.166667
vt 0.459016 0.333333
vt 0.306011 0.333333
vt 0.153005 0.500000
vt 0.153005 0.666667
vt 0.000000 0.666667
vt 0.000000 0.500000
vt 0.814208 0.999571
vt 0.797814 0.999571
vt 0.797814 0.833333
vt 0.814208 0.833333
vt 0.830601 0.999571
vt 0.814208 0.999571
vt 0.814208 0.833333
vt 0.830601 0.833333
vt 0.797814 0.999571
vt 0.781421 0.999571
vt 0.781421 0.833333
vt 0.797814 0.833333
vt 0.912568 0.666667
vt 0.928962 0.666667
vt 0.928962 0.832905
vt 0.912568 0.832905
vt 0.765027 0.500000
vt 0.918033 0.500000
vt 0.918033 0.666667
vt 0.765027 0.666667
vt 0.153005 0.833333
vt 0.000000 0.833333
vt 0.000000 0.666667
vt 0.153005 0.666667
vt 0.928962 0.999421
vt 0.912568 0.999420
vt 0.912568 0.833304
vt 0.928962 0.833304
vt 0.934426 0.499450
vt 0.918033 0.499450
vt 0.918033 0.333333
vt 0.934426 0.333333
vt 0.934426 0.166117
vt 0.918033 0.166117
vt 0.918033 0.000000
vt 0.934426 0.000000
vt 0.918033 0.166667
vt 0.934426 0.166667
vt 0.934426 0.332783
vt 0.918033 0.332783
vt 0.765027 0.000000
vt 0.918033 0.000000
vt 0.918033 0.166667
vt 0.765027 0.166667
vt 0.153005 0.166667
vt 0.000000 0.166667
vt 0.000000 0.000000
vt 0.153006 0.000000
vt 0.540984 0.999944
vt 0.524590 0.999944
vt 0.524590 0.833333
vt 0.540984 0.833333
vt 0.557377 0.833333
vt 0.573770 0.833333
vt 0.573770 0.999944
vt 0.557377 0.999944
vt 0.524590 0.999944
vt 0.508197 0.999944
vt 0.508197 0.833333
vt 0.524590 0.833333
vt 0.540984 0.833333
vt 0.557377 0.833333
vt 0.557377 0.999944
vt 0.540984 0.999944
vt 0.765027 0.666667
vt 0.612022 0.666667
vt 0.612022 0.500000
vt 0.765027 0.500000
vt 0.459016 0.666667
vt 0.612022 0.666667
vt 0.612022 0.833333
vt 0.459016 0.833333
vt 0.918033 0.500000
vt 0.934426 0.500000
vt 0.934426 0.666030
vt 0.918033 0.666030
vt 0.934426 0.000000
vt 0.950820 0.000000
vt 0.950820 0.166029
vt 0.934426 0.166029
vt 0.945355 0.832696
vt 0.928962 0.832696
vt 0.928962 0.666667
vt 0.945355 0.666667
vt 0.928962 0.833304
vt 0.945355 0.833304
vt 0.945355 0.999333
vt 0.928962 0.999333
vt 0.306011 1.000000
vt 0.306011 0.833333
vt 0.459016 0.833333
vt 0.459016 1.000000
vt 0.306011 0.666667
vt 0.459016 0.666667
vt 0.459016 0.833333
vt 0.306011 0.833333
vt 0.715847 0.999836
vt 0.699453 0.999836
vt 0.699453 0.833333
vt 0.715847 0.833333
vt 0.699453 0.999836
vt 0.683060 0.999836
vt 0.683060 0.833333
vt 0.699453 0.833333
vt 0.748634 0.999836
vt 0.732240 0.999836
vt 0.732240 0.833333
vt 0.748634 0.833333
vt 0.732240 0.999836
vt 0.715847 0.833333
vt 0.612022 0.333333
vt 0.612022 0.166667
vt 0.765027 0.166667
vt 0.765027 0.333333
vt 0.153006 0.333333
vt 0.153006 0.166667
vt 0.306011 0.166667
vt 0.306011 0.333333
vt 0.781421 0.833333
vt 0.765027 0.833333
vt 0.765027 0.666667
vt 0.781421 0.666667
vt 0.814208 0.833333
vt 0.797814 0.833333
vt 0.797814 0.666667
vt 0.814208 0.666667
vt 0.797814 0.833333
vt 0.781421 0.833333
vt 0.781421 0.666667
vt 0.797814 0.666667
vt 0.814208 0.666667
vt 0.830601 0.666667
vt 0.830601 0.833333
vt 0.814208 0.833333
vt 0.153005 1.000000
vt 0.153005 0.833333
vt 0.306011 0.833333
vt 0.306011 1.000000
vt 0.153005 0.500000
vt 0.000000 0.500000
vt 0.000000 0.333333
vt 0.153005 0.333333
vt 0.994536 0.998380
vt 0.978142 0.998380
vt 0.978142 0.833304
vt 0.994536 0.833304
vt 1.000000 0.496055
vt 0.983607 0.496055
vt 0.983607 0.330979
vt 1.000000 0.330979
vt 0.983607 0.165904
vt 1.000000 0.165904
vt 0.983607 0.000000
vt 1.000000 0.000000
vt 1.000000 0.165076
vt 0.983607 0.165076
vt 0.459016 0.333333
vt 0.612022 0.333333
vt 0.612022 0.500000
vt 0.459016 0.500000
vt 0.765027 0.333333
vt 0.765027 0.500000
vt 0.612022 0.500000
vt 0.612022 0.333333
vt 0.950820 0.499253
vt 0.934426 0.499253
vt 0.934426 0.333333
vt 0.950820 0.333333
vt 0.950819 0.665919
vt 0.934426 0.665919
vt 0.934426 0.500000
vt 0.950819 0.500000
vt 0.950820 0.331949
vt 0.934426 0.331949
vt 0.934426 0.166030
vt 0.950820 0.166029
vt 0.945355 0.666667
vt 0.961749 0.666667
vt 0.961749 0.832586
vt 0.945355 0.832586
vt 0.306011 0.000000
vt 0.459016 0.000000
vt 0.459016 0.166667
vt 0.306011 0.166667
vt 0.153005 0.333333
vt 0.000000 0.333333
vt 0.000000 0.166667
vt 0.153005 0.166667
vt 0.666667 0.999726
vt 0.650273 0.999726
vt 0.650273 0.833333
vt 0.666667 0.833333
vt 0.633880 0.999726
vt 0.617486 0.999726
vt 0.617486 0.833333
vt 0.633880 0.833333
vt 0.650273 0.833333
vt 0.650273 0.999726
vt 0.633880 0.999726
vt 0.666666 0.833333
vt 0.683060 0.833333
vt 0.683060 0.999726
vt 0.666667 0.999726
vt 0.153005 0.833333
vt 0.153005 0.666667
vt 0.306011 0.666667
vt 0.306011 0.833333
vt 0.918033 0.500000
vt 0.765027 0.500000
vt 0.765027 0.333333
vt 0.918033 0.333333
vt 0.879781 0.999941
vt 0.863388 0.999941
vt 0.863388 0.833315
vt 0.879781 0.833315
vt 0.491803 0.999959
vt 0.475410 0.999959
vt 0.475410 0.833333
vt 0.491803 0.833333
vt 0.475410 0.999959
vt 0.459016 0.999959
vt 0.459016 0.833333
vt 0.475410 0.833333
vt 0.508197 0.999959
vt 0.491803 0.999959
vt 0.491803 0.833333
vt 0.508197 0.833333
vt 0.459016 0.500000
vt 0.306011 0.500000
vt 0.306011 0.333333
vt 0.459016 0.333333
vt 0.306011 0.000000
vt 0.306011 0.166667
vt 0.153006 0.166667
vt 0.153006 0.000000
vt 0.846994 0.999952
vt 0.830601 0.999952
vt 0.830601 0.833315
vt 0.846994 0.833315
vt 0.912568 0.833304
vt 0.896175 0.833304
vt 0.896175 0.666667
vt 0.912568 0.666667
vt 0.863388 0.999952
vt 0.846995 0.999952
vt 0.846995 0.833315
vt 0.863388 0.833315
vt 0.896175 0.833304
vt 0.912568 0.833304
vt 0.912568 0.999941
vt 0.896175 0.999941
vt 0.765027 0.833333
vt 0.612022 0.833333
vt 0.612022 0.666667
vt 0.765027 0.666667
vt 0.459016 0.333333
vt 0.459016 0.166667
vt 0.612022 0.166667
vt 0.612022 0.333333
vt 0.967213 0.665829
vt 0.950820 0.665829
vt 0.950819 0.500000
vt 0.967213 0.500000
vt 0.978142 0.832495
vt 0.961749 0.832495
vt 0.961749 0.666667
vt 0.978142 0.666667
vt 0.978142 0.999132
vt 0.961749 0.999132
vt 0.961749 0.833304
vt 0.978142 0.833304
vt 0.967213 0.000000
vt 0.983607 0.000000
vt 0.983607 0.165829
vt 0.967213 0.165829
vt 0.000000 1.000000
vt 0.000000 0.833333
vt 0.153005 0.833333
vt 0.153005 1.000000
vt 0.306011 0.500000
vt 0.306011 0.666667
vt 0.153006 0.666667
vt 0.153005 0.500000
vt 0.606557 0.999924
vt 0.590164 0.999924
vt 0.590164 0.833333
vt 0.606557 0.833333
vt 0.765027 0.833333
vt 0.781421 0.833333
vt 0.781421 0.999924
vt 0.765027 0.999924
vt 0.590164 0.999924
vt 0.573770 0.999924
vt 0.573770 0.833333
vt 0.590164 0.833333
vt 0.748634 0.833333
vt 0.765027 0.833333
vt 0.765027 0.999924
vt 0.748634 0.999924
vt 0.612022 0.666667
vt 0.459016 0.666667
vt 0.459016 0.500000
vt 0.612022 0.500000
vt 0.459016 0.500000
vt 0.459016 0.666667
vt 0.306011 0.666667
vt 0.306011 0.500000
vt 0.950820 0.166045
vt 0.967213 0.166045
vt 0.967213 0.331949
vt 0.950820 0.331949
vt 0.967213 0.497852
vt 0.950820 0.497852
vt 0.950820 0.331949
vt 0.967213 0.331949
vt 0.961749 0.999207
vt 0.945355 0.999207
vt 0.945355 0.833304
vt 0.961749 0.833304
vt 0.950820 0.000000
vt 0.967213 0.000000
vt 0.967213 0.165904
vt 0.950820 0.165904
vt 0.765027 0.333333
vt 0.765027 0.166667
vt 0.918033 0.166667
vt 0.918033 0.333333
vt 0.765027 0.166667
vt 0.612022 0.166667
vt 0.612022 0.000000
vt 0.765027 0.000000
vt 0.967213 0.331949
vt 0.983607 0.331949
vt 0.983607 0.497743
vt 0.967213 0.497743
vt 0.983607 0.331698
vt 0.967213 0.331698
vt 0.967213 0.165904
vt 0.983607 0.165904
vt 0.983606 0.665795
vt 0.967213 0.665795
vt 0.967213 0.500000
vt 0.983606 0.500000
vt 0.994535 0.832461
vt 0.978142 0.832461
vt 0.978142 0.666667
vt 0.994535 0.666667
vt 0.153006 0.500000
vt 0.153005 0.333333
vt 0.306011 0.333333
vt 0.306011 0.500000
vt 0.459016 0.166667
vt 0.459016 0.000000
vt 0.612022 0.000000
vt 0.612022 0.166667
vt 0.879781 0.833315
vt 0.863388 0.833315
vt 0.863388 0.666667
vt 0.879781 0.666667
vt 0.863388 0.833315
vt 0.846995 0.833315
vt 0.846995 0.666667
vt 0.863388 0.666667
vt 0.846994 0.833315
vt 0.830601 0.833315
vt 0.830601 0.666667
vt 0.846994 0.666667
vt 0.879781 0.666667
vt 0.896175 0.666667
vt 0.896175 0.833315
vt 0.879781 0.833315
vn 0.0000 -1.0000 -0.0000
vn 0.0000 1.0000 -0.0000
vn 0.9963 0.0000 0.0865
vn -0.0865 -0.0000 0.9963
vn -0.9963 -0.0000 -0.0865
vn 0.0865 0.0000 -0.9963
vn 0.9978 -0.0000 -0.0663
vn 0.0663 -0.0000 0.9978
vn -0.9978 -0.0000 0.0663
vn -0.0663 0.0000 -0.9978
vn 0.9999 0.0000 -0.0112
vn 0.0112 -0.0000 0.9999
vn -0.9999 -0.0000 0.0112
vn -0.0112 0.0000 -0.9999
vn 0.9948 0.0000 0.1022
vn -0.1022 -0.0000 0.9948
vn -0.9948 -0.0000 -0.1022
vn 0.1022 0.0000 -0.9948
vn 0.9982 0.0000 0.0592
vn -0.0592 -0.0000 0.9982
vn -0.9982 -0.0000 -0.0592
vn 0.0592 0.0000 -0.9982
vn 0.9999 -0.0000 0.0155
vn -0.0155 -0.0000 0.9999
vn -0.9999 -0.0000 -0.0155
vn 0.0155 0.0000 -0.9999
vn 0.9924 0.0000 -0.1231
vn 0.1231 -0.0000 0.9924
vn -0.9924 -0.0000 0.1231
vn -0.1231 0.0000 -0.9924
vn 0.9940 -0.0000 0.1094
vn -0.1094 -0.0000 0.9940
vn -0.9940 -0.0000 -0.1094
vn 0.1094 0.0000 -0.9940
vn 0.9974 -0.0000 0.0722
vn -0.0722 -0.0000 0.9974
vn -0.9974 -0.0000 -0.0722
vn 0.0722 0.0000 -0.9974
vn 0.9993 0.0000 0.0369
vn -0.0369 -0.0000 0.9993
vn -0.9993 -0.0000 -0.0369
vn 0.0369 0.0000 -0.9993
vn 0.9994 -0.0000 0.0337
vn -0.0337 -0.0000 0.9994
vn -0.9994 -0.0000 -0.0337
vn 0.0337 0.0000 -0.9994
vn 0.9964 -0.0000 -0.0853
vn 0.0853 -0.0000 0.9964
vn -0.9964 -0.0000 0.0853
vn -0.0853 0.0000 -0.9964
vn 0.9999 0.0000 -0.0154
vn 0.0154 -0.0000 0.9999
vn -0.9999 -0.0000 0.0154
vn -0.0154 0.0000 -0.9999
vn 0.9939 0.0000 0.1104
vn -0.1104 -0.0000 0.9939
vn -0.9939 -0.0000 -0.1104
vn 0.1104 0.0000 -0.9939
vn 0.9962 0.0000 -0.0874
vn 0.0874 -0.0000 0.9962
vn -0.9962 -0.0000 0.0874
vn -0.0874 0.0000 -0.9962
vn 1.0000 0.0000 0.0000
vn -0.0000 -0.0000 1.0000
vn -1.0000 -0.0000 -0.0000
vn 0.0000 0.0000 -1.0000
usemtl Material
s off
f 1/1/1 2/2/1 3/3/1 4/4/1
f 5/5/2 8/6/2 7/7/2 6/8/2
f 1/9/3 5/10/3 6/11/3 2/12/3
f 2/13/4 6/14/4 7/15/4 3/16/4
f 3/17/5 7/18/5 8/19/5 4/20/5
f 5/21/6 1/22/6 4/23/6 8/24/6
f 9/25/1 10/26/1 11/27/1 12/28/1
f 13/29/2 16/30/2 15/31/2 14/32/2
f 9/33/7 13/34/7 14/35/7 10/36/7
f 10/37/8 14/38/8 15/39/8 11/40/8
f 11/41/9 15/42/9 16/43/9 12/44/9
f 13/45/10 9/46/10 12/47/10 16/48/10
f 17/49/1 18/50/1 19/51/1 20/52/1
f 21/53/2 24/54/2 23/55/2 22/56/2
f 17/57/11 21/58/11 22/59/11 18/60/11
f 18/61/12 22/62/12 23/63/12 19/64/12
f 19/65/13 23/66/13 24/67/13 20/68/13
f 21/69/14 17/70/14 20/71/14 24/72/14
f 25/73/1 26/74/1 27/75/1 28/76/1
f 29/77/2 32/78/2 31/79/2 30/80/2
f 25/81/15 29/82/15 30/83/15 26/84/15
f 26/85/16 30/86/16 31/87/16 27/88/16
f 27/89/17 31/90/17 32/91/17 28/92/17
f 29/93/18 25/94/18 28/95/18 32/96/18
f 33/97/1 34/98/1 35/99/1 36/100/1
f 37/101/2 40/102/2 39/103/2 38/104/2
f 33/105/19 37/106/19 38/107/19 34/108/19
f 34/109/20 38/110/20 39/111/20 35/112/20
f 35/113/21 39/114/21 40/115/21 36/116/21
f 37/117/22 33/105/22 36/118/22 40/115/22
f 41/119/1 42/120/1 43/121/1 44/122/1
f 45/123/2 48/124/2 47/125/2 46/126/2
f 41/127/23 45/128/23 46/129/23 42/130/23
f 42/131/24 46/132/24 47/133/24 43/134/24
f 43/135/25 47/136/25 48/137/25 44/138/25
f 45/139/26 41/140/26 44/141/26 48/142/26
f 49/143/1 50/144/1 51/145/1 52/146/1
f 53/147/2 56/148/2 55/149/2 54/150/2
f 49/151/27 53/152/27 54/153/27 50/154/27
f 50/155/28 54/156/28 55/157/28 51/158/28
f 51/158/29 55/157/29 56/159/29 52/160/29
f 53/161/30 49/162/30 52/163/30 56/164/30
f 57/165/1 58/166/1 59/167/1 60/168/1
f 61/169/2 64/170/2 63/171/2 62/172/2
f 57/173/31 61/174/31 62/175/31 58/176/31
f 58/177/32 62/178/32 63/179/32 59/180/32
f 59/181/33 63/182/33 64/183/33 60/184/33
f 61/185/34 57/186/34 60/187/34 64/188/34
f 65/189/1 66/190/1 67/191/1 68/192/1
f 69/193/2 72/194/2 71/195/2 70/196/2
f 65/197/35 69/198/35 70/199/35 66/200/35
f 66/201/36 70/202/36 71/203/36 67/204/36
f 67/204/37 71/205/37 72/206/37 68/207/37
f 69/208/38 65/209/38 68/210/38 72/211/38
f 73/212/1 74/213/1 75/214/1 76/215/1
f 77/216/2 80/217/2 79/218/2 78/219/2
f 73/220/39 77/221/39 78/222/39 74/223/39
f 74/224/40 78/225/40 79/226/40 75/227/40
f 75/228/41 79/229/41 80/230/41 76/231/41
f 77/232/42 73/233/42 76/234/42 80/235/42
f 81/236/1 82/237/1 83/238/1 84/239/1
f 85/240/2 88/241/2 87/242/2 86/243/2
f 81/244/43 85/245/43 86/246/43 82/247/43
f 82/248/44 86/249/44 87/250/44 83/251/44
f 83/252/45 87/253/45 88/254/45 84/255/45
f 85/256/46 81/257/46 84/258/46 88/259/46
f 89/260/1 90/261/1 91/262/1 92/263/1
f 93/264/2 96/265/2 95/266/2 94/267/2
f 89/268/47 93/269/47 94/270/47 90/271/47
f 90/272/48 94/273/48 95/274/48 91/275/48
f 91/276/49 95/277/49 96/278/49 92/279/49
f 93/280/50 89/281/50 92/282/50 96/283/50
f 97/284/1 98/285/1 99/286/1 100/287/1
f 101/288/2 104/289/2 103/290/2 102/291/2
f 97/292/51 101/293/51 102/294/51 98/295/51
f 98/296/52 102/297/52 103/298/52 99/299/52
f 99/300/53 103/301/53 104/302/53 100/303/53
f 101/304/54 97/305/54 100/306/54 104/307/54
f 105/308/1 106/309/1 107/310/1 108/311/1
f 109/312/2 112/313/2 111/314/2 110/315/2
f 105/316/55 109/317/55 110/318/55 106/319/55
f 106/320/56 110/321/56 111/322/56 107/323/56
f 107/324/57 111/325/57 112/326/57 108/327/57
f 109/328/58 105/329/58 108/330/58 112/331/58
f 113/332/1 114/333/1 115/334/1 116/335/1
f 117/336/2 120/337/2 119/338/2 118/339/2
f 113/340/59 117/341/59 118/342/59 114/343/59
f 114/344/60 118/345/60 119/346/60 115/347/60
f 115/348/61 119/349/61 120/350/61 116/351/61
f 117/352/62 113/353/62 116/354/62 120/355/62
f 121/356/1 122/357/1 123/358/1 124/359/1
f 125/360/2 128/361/2 127/362/2 126/363/2
f 121/364/63 125/365/63 126/366/63 122/367/63
f 122/368/64 126/369/64 127/370/64 123/371/64
f 123/372/65 127/373/65 128/374/65 124/375/65
f 125/376/66 121/377/66 124/378/66 128/379/66
