# Blender v2.79 (sub 0) OBJ File: ''
# www.blender.org
mtllib Strawberry_collider.mtl
o Sphere
v 0.162208 0.802026 -0.658103
v 0.224612 0.294163 -0.911286
v 0.214552 -0.287183 -0.870473
v 0.127058 -0.802140 -0.515493
v 0.314988 0.802026 -0.600160
v 0.436170 0.294163 -0.831053
v 0.416635 -0.287183 -0.793833
v 0.246731 -0.802140 -0.470107
v 0.449463 0.802026 -0.507339
v 0.622379 0.294163 -0.702522
v 0.594505 -0.287183 -0.671058
v 0.352065 -0.802140 -0.397400
v 0.557817 0.802026 -0.385033
v 0.772419 0.294163 -0.533162
v 0.737825 -0.287183 -0.509284
v 0.436939 -0.802140 -0.301597
v -0.000000 0.910589 -0.000000
v 0.633752 0.802026 -0.240351
v 0.877568 0.294163 -0.332818
v 0.838264 -0.287183 -0.317912
v 0.496419 -0.802140 -0.188267
v 0.672856 0.802026 -0.081700
v 0.931715 0.294163 -0.113131
v 0.889987 -0.287183 -0.108064
v 0.527049 -0.802140 -0.063996
v 0.672856 0.802026 0.081699
v 0.931715 0.294163 0.113130
v 0.889987 -0.287183 0.108064
v 0.527049 -0.802140 0.063995
v 0.633752 0.802026 0.240350
v 0.877568 0.294163 0.332817
v 0.838264 -0.287183 0.317911
v 0.496419 -0.802140 0.188266
v 0.557817 0.802026 0.385033
v 0.772419 0.294163 0.533162
v 0.737825 -0.287183 0.509283
v 0.436939 -0.802140 0.301597
v 0.449463 0.802026 0.507339
v 0.622379 0.294163 0.702521
v 0.594505 -0.287183 0.671057
v 0.352065 -0.802140 0.397399
v 0.314988 0.802026 0.600160
v 0.436170 0.294163 0.831052
v 0.416635 -0.287183 0.793832
v 0.246731 -0.802140 0.470106
v 0.162208 0.802026 0.658102
v 0.224612 0.294163 0.911285
v 0.214552 -0.287183 0.870472
v 0.127058 -0.802140 0.515492
v 0.000000 0.802026 0.677797
v 0.000000 0.294163 0.938558
v 0.000000 -0.287183 0.896524
v 0.000000 -0.802140 0.530920
v -0.162208 0.802026 0.658102
v -0.224612 0.294163 0.911285
v -0.214552 -0.287183 0.870472
v -0.127057 -0.802140 0.515492
v -0.314988 0.802026 0.600160
v -0.436170 0.294163 0.831052
v -0.416635 -0.287183 0.793832
v -0.246731 -0.802140 0.470106
v -0.449463 0.802026 0.507339
v -0.622379 0.294163 0.702521
v -0.594505 -0.287183 0.671058
v -0.352065 -0.802140 0.397399
v -0.557817 0.802026 0.385033
v -0.772419 0.294163 0.533162
v -0.737825 -0.287183 0.509283
v -0.436939 -0.802140 0.301597
v -0.633752 0.802026 0.240350
v -0.877568 0.294163 0.332817
v -0.838265 -0.287183 0.317912
v -0.496419 -0.802140 0.188267
v -0.672856 0.802026 0.081699
v -0.931716 0.294163 0.113131
v -0.889987 -0.287183 0.108064
v -0.527049 -0.802140 0.063995
v -0.672856 0.802026 -0.081700
v -0.931716 0.294163 -0.113131
v -0.889988 -0.287183 -0.108064
v -0.527049 -0.802140 -0.063996
v -0.633752 0.802026 -0.240351
v -0.877568 0.294163 -0.332818
v -0.838265 -0.287183 -0.317912
v -0.496419 -0.802140 -0.188267
v -0.557817 0.802026 -0.385033
v -0.772419 0.294163 -0.533163
v -0.737825 -0.287183 -0.509284
v -0.436939 -0.802140 -0.301597
v -0.449463 0.802026 -0.507339
v -0.622380 0.294163 -0.702522
v -0.594506 -0.287183 -0.671058
v -0.352066 -0.802140 -0.397400
v -0.314989 0.802026 -0.600161
v -0.436170 0.294163 -0.831053
v -0.416636 -0.287183 -0.793833
v -0.246731 -0.802140 -0.470107
v -0.162208 0.802026 -0.658103
v -0.224612 0.294163 -0.911286
v -0.214553 -0.287183 -0.870473
v -0.127058 -0.802140 -0.515493
v 0.000000 -1.055648 -0.000000
v -0.000000 0.802026 -0.677799
v -0.000000 0.294163 -0.938559
v -0.000000 -0.287183 -0.896525
v -0.000000 -0.802140 -0.530921
v 0.062210 0.910588 -0.252396
v 0.120804 0.910588 -0.230174
v 0.172378 0.910588 -0.194575
v 0.213934 0.910588 -0.147668
v 0.243056 0.910588 -0.092180
v 0.258054 0.910588 -0.031334
v 0.258054 0.910588 0.031333
v 0.243056 0.910588 0.092179
v 0.213934 0.910588 0.147668
v 0.172378 0.910588 0.194574
v 0.120804 0.910588 0.230173
v 0.062210 0.910588 0.252395
v -0.000000 0.910588 0.259949
v -0.062210 0.910588 0.252395
v -0.120804 0.910588 0.230173
v -0.172378 0.910588 0.194574
v -0.213934 0.910588 0.147667
v -0.243056 0.910588 0.092179
v -0.258054 0.910588 0.031333
v -0.258054 0.910588 -0.031334
v -0.243057 0.910588 -0.092179
v -0.213934 0.910588 -0.147668
v -0.172378 0.910588 -0.194575
v -0.120805 0.910588 -0.230174
v -0.062210 0.910588 -0.252396
v -0.000000 0.910588 -0.259949
vt 0.500000 -0.003125
vt 0.500000 -0.003125
vt 0.500000 0.496875
vt 0.500000 0.496875
vt 0.500000 -0.003125
vt 1.000000 -0.003125
vt 1.000000 0.496875
vt 0.000000 -0.003125
vt 1.000000 -0.003125
vt 1.000000 0.496875
vt 0.000000 0.496875
vt 1.000000 -0.003125
vt 1.000000 0.496875
vt 0.000000 0.496875
vt 0.000000 -0.003125
vt 0.319418 0.827786
vt 0.336153 0.809034
vt 0.500000 0.496875
vt 0.500000 -0.003125
vt 0.500000 -0.003125
vt 0.500000 -0.003125
vt 0.500000 0.496875
vt 0.500000 0.496875
vt 1.000000 -0.003125
vt 1.000000 0.496875
vt 0.250000 0.853921
vt 0.250000 0.750000
vt 0.275053 0.850901
vt 0.000000 -0.003125
vt 0.500000 -0.003125
vt 1.000000 -0.003125
vt 0.000000 0.496875
vt 0.000000 -0.003125
vt 1.000000 -0.003125
vt 1.000000 0.496875
vt 0.000000 0.496875
vt 0.298649 0.842017
vt 0.000000 -0.003125
vt 1.000000 -0.003125
vt 1.000000 0.496875
vt 0.000000 0.496875
vt 1.000000 -0.003125
vt 1.000000 0.496875
vt 0.347881 0.786851
vt 0.500000 0.496875
vt 0.500000 -0.003125
vt 0.500000 -0.003125
vt 0.500000 -0.003125
vt 0.500000 0.496875
vt 0.500000 0.496875
vt 0.500000 -0.003125
vt 0.500000 0.496875
vt 0.000000 -0.003125
vt 0.500000 -0.003125
vt 1.000000 -0.003125
vt 0.000000 0.496875
vt 1.000000 -0.003125
vt 1.000000 0.496875
vt 0.000000 -0.003125
vt 1.000000 -0.003125
vt 1.000000 0.496875
vt 0.000000 0.496875
vt 0.353921 0.762526
vt 0.500000 0.496875
vt 0.500000 -0.003125
vt 0.000000 -0.003125
vt 1.000000 -0.003125
vt 1.000000 0.496875
vt 0.000000 0.496875
vt 1.000000 -0.003125
vt 1.000000 0.496875
vt 0.500000 -0.003125
vt 0.000000 -0.003125
vt 0.500000 -0.003125
vt 0.500000 0.496875
vt 0.500000 -0.003125
vt 0.500000 -0.003125
vt 0.500000 0.496875
vt 0.500000 0.496875
vt 0.000000 -0.003125
vt 1.000000 -0.003125
vt 1.000000 0.496875
vt 0.000000 0.496875
vt 0.500000 -0.003125
vt 0.500000 0.496875
vt 1.000000 -0.003125
vt 1.000000 0.496875
vt 0.353921 0.737474
vt 0.000000 -0.003125
vt 1.000000 -0.003125
vt 1.000000 0.496875
vt 0.000000 0.496875
vt 0.347881 0.713149
vt 0.500000 0.496875
vt 0.500000 -0.003125
vt 0.500000 -0.003125
vt 0.000000 -0.003125
vt 0.500000 -0.003125
vt 0.500000 0.496875
vt 1.000000 -0.003125
vt 1.000000 0.496875
vt 0.500000 -0.003125
vt 0.500000 0.496875
vt 1.000000 -0.003125
vt 1.000000 0.496875
vt 0.000000 0.496875
vt 0.000000 -0.003125
vt 0.336153 0.690966
vt 0.500000 0.496875
vt 0.500000 -0.003125
vt 0.500000 -0.003125
vt 0.500000 0.496875
vt 1.000000 -0.003125
vt 1.000000 0.496875
vt 0.319418 0.672214
vt 0.500000 0.496875
vt 0.500000 -0.003125
vt 0.000000 -0.003125
vt 1.000000 -0.003125
vt 1.000000 0.496875
vt 0.000000 0.496875
vt 0.000000 -0.003125
vt 1.000000 -0.003125
vt 1.000000 0.496875
vt 0.000000 0.496875
vt 0.500000 -0.003125
vt 0.500000 -0.003125
vt 0.500000 0.496875
vt 0.500000 0.496875
vt 0.000000 -0.003125
vt 1.000000 -0.003125
vt 1.000000 0.496875
vt 0.000000 0.496875
vt 1.000000 -0.003125
vt 1.000000 0.496875
vt 0.298649 0.657983
vt 0.500000 0.496875
vt 0.500000 -0.003125
vt 0.500000 -0.003125
vt 0.500000 0.496875
vt 0.000000 -0.003125
vt 0.500000 -0.003125
vt 1.000000 -0.003125
vt 0.000000 0.496875
vt 0.000000 -0.003125
vt 0.500000 -0.003125
vt 1.000000 -0.003125
vt 0.000000 0.496875
vt 1.000000 -0.003125
vt 1.000000 0.496875
vt 0.275053 0.649099
vt 0.500000 0.496875
vt 0.500000 -0.003125
vt 0.000000 -0.003125
vt 1.000000 -0.003125
vt 1.000000 0.496875
vt 0.000000 0.496875
vt 1.000000 -0.003125
vt 1.000000 0.496875
vt 0.250000 0.646079
vt 0.500000 0.496875
vt 0.500000 -0.003125
vt 0.500000 -0.003125
vt 0.500000 -0.003125
vt 0.500000 0.496875
vt 0.500000 0.496875
vt 0.500000 -0.003125
vt 0.500000 0.496875
vt 0.000000 -0.003125
vt 1.000000 -0.003125
vt 1.000000 0.496875
vt 0.000000 0.496875
vt 0.000000 -0.003125
vt 1.000000 -0.003125
vt 1.000000 0.496875
vt 0.000000 0.496875
vt 1.000000 -0.003125
vt 1.000000 0.496875
vt 0.224947 0.649099
vt 0.500000 0.496875
vt 0.500000 -0.003125
vt 0.201351 0.657983
vt 0.500000 0.496875
vt 0.500000 -0.003125
vt 0.500000 -0.003125
vt 0.000000 -0.003125
vt 0.500000 -0.003125
vt 0.500000 0.496875
vt 0.500000 -0.003125
vt 0.000000 -0.003125
vt 0.500000 -0.003125
vt 0.500000 0.496875
vt 1.000000 -0.003125
vt 1.000000 0.496875
vt 1.000000 -0.003125
vt 1.000000 0.496875
vt 0.000000 0.496875
vt 0.000000 -0.003125
vt 0.500000 -0.003125
vt 0.500000 0.496875
vt 1.000000 -0.003125
vt 1.000000 0.496875
vt 0.180582 0.672214
vt 0.500000 0.496875
vt 0.500000 -0.003125
vt 0.000000 -0.003125
vt 1.000000 -0.003125
vt 1.000000 0.496875
vt 0.000000 0.496875
vt 0.000000 -0.003125
vt 1.000000 -0.003125
vt 1.000000 0.496875
vt 0.000000 0.496875
vt 0.500000 -0.003125
vt 0.500000 -0.003125
vt 0.500000 0.496875
vt 0.500000 0.496875
vt 0.500000 -0.003125
vt 0.500000 0.496875
vt 0.000000 -0.003125
vt 1.000000 -0.003125
vt 1.000000 0.496875
vt 0.000000 0.496875
vt 1.000000 -0.003125
vt 1.000000 0.496875
vt 0.163847 0.690966
vt 0.500000 0.496875
vt 0.500000 -0.003125
vt 1.000000 -0.003125
vt 1.000000 0.496875
vt 0.152119 0.713149
vt 0.500000 0.496875
vt 0.500000 -0.003125
vt 0.000000 -0.003125
vt 0.500000 -0.003125
vt 1.000000 -0.003125
vt 0.000000 0.496875
vt 0.000000 -0.003125
vt 0.500000 -0.003125
vt 1.000000 -0.003125
vt 0.000000 0.496875
vt 0.000000 -0.003125
vt 1.000000 -0.003125
vt 1.000000 0.496875
vt 0.000000 0.496875
vt 1.000000 -0.003125
vt 1.000000 0.496875
vt 0.146079 0.737474
vt 0.500000 0.496875
vt 0.500000 -0.003125
vt 0.500000 -0.003125
vt 0.500000 -0.003125
vt 0.500000 0.496875
vt 0.500000 0.496875
vt 0.500000 -0.003125
vt 0.500000 0.496875
vt 1.000000 -0.003125
vt 1.000000 0.496875
vt 0.000000 -0.003125
vt 1.000000 -0.003125
vt 1.000000 0.496875
vt 0.000000 0.496875
vt 0.000000 -0.003125
vt 1.000000 -0.003125
vt 1.000000 0.496875
vt 0.000000 0.496875
vt 0.146079 0.762526
vt 0.500000 0.496875
vt 0.500000 -0.003125
vt 0.000000 -0.003125
vt 1.000000 -0.003125
vt 1.000000 0.496875
vt 0.000000 0.496875
vt 1.000000 -0.003125
vt 1.000000 0.496875
vt 0.152119 0.786851
vt 0.500000 0.496875
vt 0.500000 -0.003125
vt 0.500000 -0.003125
vt 0.000000 -0.003125
vt 0.500000 -0.003125
vt 0.500000 0.496875
vt 0.500000 -0.003125
vt 0.500000 -0.003125
vt 0.500000 0.496875
vt 0.500000 0.496875
vt 1.000000 -0.003125
vt 1.000000 0.496875
vt 0.163847 0.809034
vt 0.500000 0.496875
vt 0.500000 -0.003125
vt 0.000000 -0.003125
vt 1.000000 -0.003125
vt 1.000000 0.496875
vt 0.000000 0.496875
vt 0.000000 -0.003125
vt 1.000000 -0.003125
vt 1.000000 0.496875
vt 0.000000 0.496875
vt 0.500000 -0.003125
vt 0.000000 -0.003125
vt 0.500000 -0.003125
vt 0.500000 0.496875
vt 1.000000 -0.003125
vt 1.000000 0.496875
vt 0.500000 -0.003125
vt 0.500000 0.496875
vt 1.000000 -0.003125
vt 1.000000 0.496875
vt 0.000000 0.496875
vt 0.000000 -0.003125
vt 0.180581 0.827786
vt 0.500000 0.496875
vt 0.500000 -0.003125
vt 0.500000 -0.003125
vt 0.500000 0.496875
vt 1.000000 -0.003125
vt 1.000000 0.496875
vt 0.201351 0.842017
vt 0.500000 0.496875
vt 0.500000 -0.003125
vt 0.000000 -0.003125
vt 0.500000 -0.003125
vt 1.000000 -0.003125
vt 0.000000 0.496875
vt 0.000000 -0.003125
vt 1.000000 -0.003125
vt 1.000000 0.496875
vt 0.000000 0.496875
vt 0.500000 -0.003125
vt 0.500000 -0.003125
vt 0.500000 0.496875
vt 0.500000 0.496875
vt 0.000000 -0.003125
vt 1.000000 -0.003125
vt 1.000000 0.496875
vt 0.000000 0.496875
vt 1.000000 -0.003125
vt 1.000000 0.496875
vt 0.224947 0.850901
vt 0.500000 0.496875
vt 0.500000 -0.003125
vt 0.500000 -0.003125
vt 0.500000 0.496875
vt 0.000000 -0.003125
vt 0.500000 -0.003125
vt 1.000000 -0.003125
vt 0.000000 0.496875
vt 1.000000 -0.003125
vt 1.000000 0.496875
vt 0.000000 -0.003125
vt 1.000000 -0.003125
vt 1.000000 0.496875
vt 0.000000 0.496875
vt 0.500000 0.496875
vt 0.500000 -0.003125
vt 0.000000 -0.003125
vt 1.000000 -0.003125
vt 1.000000 0.496875
vt 0.000000 0.496875
vt 1.000000 -0.003125
vt 1.000000 0.496875
vt 0.500000 0.496875
vt 0.500000 -0.003125
vt 0.500000 -0.003125
vt 0.500000 0.496875
vt 0.500000 0.496875
vt 0.500000 -0.003125
vt 0.000000 -0.003125
vt 0.500000 -0.003125
vt 0.500000 -0.003125
vt 0.500000 0.496875
vt 1.000000 -0.003125
vt 1.000000 0.496875
vt 0.500000 -0.003125
vt 0.500000 0.496875
vt 1.000000 -0.003125
vt 1.000000 0.496875
vt 0.000000 0.496875
vt 0.000000 -0.003125
vn 0.3043 -0.7558 -0.5798
vn 0.4384 -0.3316 -0.8354
vn 0.6256 -0.3316 -0.7061
vn 0.4342 -0.7558 -0.4901
vn 0.0000 -1.0000 0.0000
vn 0.1567 -0.7558 -0.6358
vn 0.2258 -0.3316 -0.9160
vn 0.1540 0.7654 -0.6248
vn 0.2991 0.7654 -0.5698
vn 0.4557 0.1958 -0.8683
vn 0.2347 0.1958 -0.9521
vn 0.0904 0.9907 -0.1020
vn 0.1122 0.9907 -0.0774
vn 0.5296 0.7654 -0.3656
vn 0.4267 0.7654 -0.4817
vn 0.6503 0.1958 -0.7340
vn 0.0000 0.9907 -0.1363
vn 0.0000 1.0000 0.0000
vn 0.0326 0.9907 -0.1324
vn 0.7764 -0.3316 -0.5359
vn 0.5389 -0.7558 -0.3720
vn 0.8070 0.1958 -0.5571
vn 0.0633 0.9907 -0.1207
vn 0.1274 0.9907 -0.0483
vn 0.6017 0.7654 -0.2282
vn 0.8821 -0.3316 -0.3345
vn 0.6123 -0.7558 -0.2322
vn 0.9169 0.1958 -0.3477
vn 0.9735 0.1958 -0.1182
vn 0.9365 -0.3316 -0.1137
vn 0.6500 -0.7558 -0.0789
vn 0.1353 0.9907 -0.0164
vn 0.6388 0.7654 -0.0775
vn 0.9365 -0.3316 0.1137
vn 0.6500 -0.7558 0.0789
vn 0.9735 0.1958 0.1182
vn 0.9169 0.1958 0.3477
vn 0.8821 -0.3316 0.3345
vn 0.6388 0.7654 0.0775
vn 0.1353 0.9907 0.0164
vn 0.6123 -0.7558 0.2322
vn 0.1274 0.9907 0.0483
vn 0.6017 0.7654 0.2282
vn 0.8070 0.1958 0.5571
vn 0.7764 -0.3316 0.5359
vn 0.5389 -0.7558 0.3720
vn 0.1122 0.9907 0.0774
vn 0.5296 0.7654 0.3656
vn 0.0904 0.9907 0.1020
vn 0.4267 0.7654 0.4817
vn 0.6256 -0.3316 0.7061
vn 0.4342 -0.7558 0.4901
vn 0.6503 0.1958 0.7340
vn 0.4557 0.1958 0.8683
vn 0.4384 -0.3316 0.8354
vn 0.0633 0.9907 0.1207
vn 0.2991 0.7654 0.5698
vn 0.3043 -0.7558 0.5798
vn 0.2258 -0.3316 0.9160
vn 0.1567 -0.7558 0.6358
vn 0.2347 0.1958 0.9521
vn 0.0326 0.9907 0.1324
vn 0.1540 0.7654 0.6248
vn 0.0000 0.9907 0.1363
vn 0.0000 0.7654 0.6435
vn 0.0000 -0.3316 0.9434
vn 0.0000 -0.7558 0.6548
vn 0.0000 0.1958 0.9806
vn -0.2257 -0.3316 0.9160
vn -0.1567 -0.7558 0.6358
vn -0.2347 0.1958 0.9521
vn -0.0326 0.9907 0.1324
vn -0.1540 0.7654 0.6248
vn -0.0633 0.9907 0.1207
vn -0.2991 0.7654 0.5698
vn -0.4384 -0.3316 0.8354
vn -0.3043 -0.7558 0.5798
vn -0.4557 0.1958 0.8683
vn -0.0904 0.9907 0.1020
vn -0.4267 0.7654 0.4817
vn -0.6256 -0.3316 0.7061
vn -0.4342 -0.7558 0.4901
vn -0.6503 0.1958 0.7340
vn -0.7764 -0.3316 0.5359
vn -0.5389 -0.7558 0.3720
vn -0.8070 0.1958 0.5571
vn -0.1122 0.9907 0.0774
vn -0.5296 0.7654 0.3656
vn -0.1274 0.9907 0.0483
vn -0.6017 0.7654 0.2282
vn -0.8821 -0.3316 0.3345
vn -0.6123 -0.7558 0.2322
vn -0.9169 0.1958 0.3477
vn -0.1353 0.9907 0.0164
vn -0.6388 0.7654 0.0775
vn -0.9365 -0.3316 0.1137
vn -0.6500 -0.7558 0.0789
vn -0.9735 0.1958 0.1182
vn -0.9365 -0.3316 -0.1137
vn -0.6500 -0.7558 -0.0789
vn -0.9735 0.1958 -0.1182
vn -0.1353 0.9907 -0.0164
vn -0.6388 0.7654 -0.0775
vn -0.1274 0.9907 -0.0483
vn -0.6017 0.7654 -0.2282
vn -0.8821 -0.3316 -0.3345
vn -0.6123 -0.7558 -0.2322
vn -0.9169 0.1958 -0.3477
vn -0.1122 0.9907 -0.0774
vn -0.5296 0.7654 -0.3656
vn -0.7764 -0.3316 -0.5359
vn -0.5389 -0.7558 -0.3720
vn -0.8070 0.1958 -0.5571
vn -0.6503 0.1958 -0.7340
vn -0.6256 -0.3316 -0.7061
vn -0.4342 -0.7558 -0.4901
vn -0.0904 0.9907 -0.1020
vn -0.4267 0.7654 -0.4817
vn -0.0633 0.9907 -0.1207
vn -0.2991 0.7654 -0.5698
vn -0.4384 -0.3316 -0.8354
vn -0.3043 -0.7558 -0.5798
vn -0.4557 0.1958 -0.8683
vn -0.2347 0.1958 -0.9521
vn -0.2258 -0.3316 -0.9160
vn -0.0326 0.9907 -0.1324
vn -0.1540 0.7654 -0.6248
vn -0.1567 -0.7558 -0.6358
vn 0.0000 0.1958 -0.9806
vn 0.0000 -0.3316 -0.9434
vn 0.0000 -0.7558 -0.6548
vn 0.0000 0.7654 -0.6435
usemtl None
s 1
f 8/1/1 7/2/2 11/3/3 12/4/4
f 102/5/5 4/6/6 8/7/1
f 4/8/6 3/9/7 7/10/2 8/11/1
f 1/12/8 5/13/9 6/14/10 2/15/11
f 109/16/12 110/17/13 13/18/14 9/19/15
f 6/20/10 5/21/9 9/22/15 10/23/16
f 102/5/5 8/24/1 12/25/4
f 132/26/17 17/27/18 107/28/19
f 12/29/4 11/30/3 15/31/20 16/32/21
f 11/33/3 10/34/16 14/35/22 15/36/20
f 107/28/19 17/27/18 108/37/23
f 7/2/2 6/20/10 10/23/16 11/3/3
f 10/38/16 9/39/15 13/40/14 14/41/22
f 12/42/4 16/43/21 102/5/5
f 110/17/13 111/44/24 18/45/25 13/46/14
f 16/47/21 15/48/20 20/49/26 21/50/27
f 15/48/20 14/51/22 19/52/28 20/49/26
f 108/37/23 17/27/18 109/16/12
f 20/53/26 19/54/28 23/55/29 24/56/30
f 102/5/5 16/57/21 21/58/27
f 109/16/12 17/27/18 110/17/13
f 21/59/27 20/60/26 24/61/30 25/62/31
f 13/46/14 18/45/25 19/52/28 14/51/22
f 111/44/24 112/63/32 22/64/33 18/65/25
f 19/66/28 18/67/25 22/68/33 23/69/29
f 102/5/5 21/70/27 25/71/31
f 111/44/24 17/27/18 112/63/32
f 25/72/31 24/73/30 28/74/34 29/75/35
f 24/76/30 23/77/29 27/78/36 28/79/34
f 110/17/13 17/27/18 111/44/24
f 28/80/34 27/81/36 31/82/37 32/83/38
f 23/77/29 22/84/33 26/85/39 27/78/36
f 25/86/31 29/87/35 102/5/5
f 112/63/32 113/88/40 26/85/39 22/84/33
f 29/89/35 28/90/34 32/91/38 33/92/41
f 113/88/40 114/93/42 30/94/43 26/95/39
f 32/96/38 31/97/37 35/98/44 36/99/45
f 102/5/5 29/100/35 33/101/41
f 112/63/32 17/27/18 113/88/40
f 33/102/41 32/96/38 36/99/45 37/103/46
f 26/104/39 30/105/43 31/106/37 27/107/36
f 114/93/42 115/108/47 34/109/48 30/110/43
f 31/111/37 30/110/43 34/109/48 35/112/44
f 102/5/5 33/113/41 37/114/46
f 115/108/47 116/115/49 38/116/50 34/117/48
f 37/118/46 36/119/45 40/120/51 41/121/52
f 36/122/45 35/123/44 39/124/53 40/125/51
f 113/88/40 17/27/18 114/93/42
f 40/126/51 39/127/53 43/128/54 44/129/55
f 35/130/44 34/131/48 38/132/50 39/133/53
f 37/134/46 41/135/52 102/5/5
f 116/115/49 117/136/56 42/137/57 38/138/50
f 41/139/52 40/126/51 44/129/55 45/140/58
f 114/93/42 17/27/18 115/108/47
f 45/141/58 44/142/55 48/143/59 49/144/60
f 44/145/55 43/146/54 47/147/61 48/148/59
f 102/5/5 41/149/52 45/150/58
f 115/108/47 17/27/18 116/115/49
f 38/138/50 42/137/57 43/128/54 39/127/53
f 117/136/56 118/151/62 46/152/63 42/153/57
f 43/154/54 42/155/57 46/156/63 47/157/61
f 102/5/5 45/158/58 49/159/60
f 118/151/62 119/160/64 50/161/65 46/162/63
f 49/163/60 48/164/59 52/165/66 53/166/67
f 48/164/59 47/167/61 51/168/68 52/165/66
f 116/115/49 17/27/18 117/136/56
f 53/169/67 52/170/66 56/171/69 57/172/70
f 52/173/66 51/174/68 55/175/71 56/176/69
f 47/167/61 46/162/63 50/161/65 51/168/68
f 49/177/60 53/178/67 102/5/5
f 119/160/64 120/179/72 54/180/73 50/181/65
f 117/136/56 17/27/18 118/151/62
f 120/179/72 121/182/74 58/183/75 54/184/73
f 57/185/70 56/186/69 60/187/76 61/188/77
f 56/189/69 55/190/71 59/191/78 60/192/76
f 102/5/5 53/193/67 57/194/70
f 118/151/62 17/27/18 119/160/64
f 50/195/65 54/196/73 55/197/71 51/198/68
f 55/199/71 54/184/73 58/183/75 59/200/78
f 102/5/5 57/201/70 61/202/77
f 121/182/74 122/203/79 62/204/80 58/205/75
f 61/206/77 60/207/76 64/208/81 65/209/82
f 60/210/76 59/211/78 63/212/83 64/213/81
f 119/160/64 17/27/18 120/179/72
f 120/179/72 17/27/18 121/182/74
f 65/214/82 64/215/81 68/216/84 69/217/85
f 64/215/81 63/218/83 67/219/86 68/216/84
f 59/220/78 58/221/75 62/222/80 63/223/83
f 102/5/5 61/224/77 65/225/82
f 122/203/79 123/226/87 66/227/88 62/228/80
f 102/5/5 65/229/82 69/230/85
f 123/226/87 124/231/89 70/232/90 66/233/88
f 69/234/85 68/235/84 72/236/91 73/237/92
f 68/238/84 67/239/86 71/240/93 72/241/91
f 121/182/74 17/27/18 122/203/79
f 63/218/83 62/228/80 66/227/88 67/219/86
f 67/242/86 66/243/88 70/244/90 71/245/93
f 69/246/85 73/247/92 102/5/5
f 124/231/89 125/248/94 74/249/95 70/250/90
f 73/251/92 72/252/91 76/253/96 77/254/97
f 72/252/91 71/255/93 75/256/98 76/253/96
f 122/203/79 17/27/18 123/226/87
f 102/5/5 73/257/92 77/258/97
f 123/226/87 17/27/18 124/231/89
f 77/259/97 76/260/96 80/261/99 81/262/100
f 76/263/96 75/264/98 79/265/101 80/266/99
f 70/250/90 74/249/95 75/256/98 71/255/93
f 125/248/94 126/267/102 78/268/103 74/269/95
f 75/270/98 74/271/95 78/272/103 79/273/101
f 102/5/5 77/274/97 81/275/100
f 126/267/102 127/276/104 82/277/105 78/278/103
f 81/279/100 80/280/99 84/281/106 85/282/107
f 80/283/99 79/284/101 83/285/108 84/286/106
f 124/231/89 17/27/18 125/248/94
f 79/284/101 78/278/103 82/277/105 83/285/108
f 81/287/100 85/288/107 102/5/5
f 127/276/104 128/289/109 86/290/110 82/291/105
f 85/292/107 84/293/106 88/294/111 89/295/112
f 84/296/106 83/297/108 87/298/113 88/299/111
f 125/248/94 17/27/18 126/267/102
f 88/300/111 87/301/113 91/302/114 92/303/115
f 102/5/5 85/304/107 89/305/112
f 126/267/102 17/27/18 127/276/104
f 89/306/112 88/300/111 92/303/115 93/307/116
f 82/308/105 86/309/110 87/310/113 83/311/108
f 128/289/109 129/312/117 90/313/118 86/314/110
f 87/315/113 86/314/110 90/313/118 91/316/114
f 102/5/5 89/317/112 93/318/116
f 129/312/117 130/319/119 94/320/120 90/321/118
f 93/322/116 92/323/115 96/324/121 97/325/122
f 92/326/115 91/327/114 95/328/123 96/329/121
f 127/276/104 17/27/18 128/289/109
f 96/330/121 95/331/123 99/332/124 100/333/125
f 91/334/114 90/335/118 94/336/120 95/337/123
f 93/338/116 97/339/122 102/5/5
f 130/319/119 131/340/126 98/341/127 94/342/120
f 97/343/122 96/330/121 100/333/125 101/344/128
f 128/289/109 17/27/18 129/312/117
f 100/345/125 99/346/124 104/347/129 105/348/130
f 102/5/5 97/349/122 101/350/128
f 129/312/117 17/27/18 130/319/119
f 101/351/128 100/352/125 105/353/130 106/354/131
f 94/342/120 98/341/127 99/332/124 95/331/123
f 131/340/126 132/26/17 103/355/132 98/356/127
f 99/357/124 98/358/127 103/359/132 104/360/129
f 102/5/5 101/361/128 106/362/131
f 132/26/17 107/28/19 1/363/8 103/364/132
f 105/365/130 3/366/7 4/367/6 106/368/131
f 104/369/129 2/370/11 3/366/7 105/365/130
f 130/319/119 17/27/18 131/340/126
f 104/371/129 103/364/132 1/363/8 2/372/11
f 102/5/5 106/373/131 4/374/6
f 131/340/126 17/27/18 132/26/17
f 108/37/23 109/16/12 9/22/15 5/21/9
f 1/375/8 107/28/19 108/37/23 5/376/9
f 2/377/11 6/378/10 7/379/2 3/380/7
